<svg width="480" height="480" viewBox="0 0 480 480" fill="none" xmlns="http://www.w3.org/2000/svg">
  <rect width="480" height="480" fill="transparent"/>
  <g opacity="0.42">
    <circle cx="32" cy="32" r="4" fill="#6E1730"/>
    <circle cx="96" cy="32" r="4" fill="#6E1730"/>
    <circle cx="160" cy="32" r="4" fill="#6E1730"/>
    <circle cx="224" cy="32" r="4" fill="#6E1730"/>
    <circle cx="288" cy="32" r="4" fill="#6E1730"/>
    <circle cx="352" cy="32" r="4" fill="#6E1730"/>
    <circle cx="416" cy="32" r="4" fill="#6E1730"/>
  </g>
  <g opacity="0.36">
    <circle cx="64" cy="96" r="4" fill="#D1A420"/>
    <circle cx="128" cy="96" r="4" fill="#D1A420"/>
    <circle cx="192" cy="96" r="4" fill="#D1A420"/>
    <circle cx="256" cy="96" r="4" fill="#D1A420"/>
    <circle cx="320" cy="96" r="4" fill="#D1A420"/>
    <circle cx="384" cy="96" r="4" fill="#D1A420"/>
  </g>
  <g opacity="0.32">
    <circle cx="32" cy="160" r="4" fill="#6E1730"/>
    <circle cx="96" cy="160" r="4" fill="#6E1730"/>
    <circle cx="160" cy="160" r="4" fill="#6E1730"/>
    <circle cx="224" cy="160" r="4" fill="#6E1730"/>
    <circle cx="288" cy="160" r="4" fill="#6E1730"/>
    <circle cx="352" cy="160" r="4" fill="#6E1730"/>
    <circle cx="416" cy="160" r="4" fill="#6E1730"/>
  </g>
  <g opacity="0.26">
    <circle cx="64" cy="224" r="4" fill="#D1A420"/>
    <circle cx="128" cy="224" r="4" fill="#D1A420"/>
    <circle cx="192" cy="224" r="4" fill="#D1A420"/>
    <circle cx="256" cy="224" r="4" fill="#D1A420"/>
    <circle cx="320" cy="224" r="4" fill="#D1A420"/>
    <circle cx="384" cy="224" r="4" fill="#D1A420"/>
  </g>
  <g opacity="0.2">
    <circle cx="32" cy="288" r="4" fill="#6E1730"/>
    <circle cx="96" cy="288" r="4" fill="#6E1730"/>
    <circle cx="160" cy="288" r="4" fill="#6E1730"/>
    <circle cx="224" cy="288" r="4" fill="#6E1730"/>
    <circle cx="288" cy="288" r="4" fill="#6E1730"/>
    <circle cx="352" cy="288" r="4" fill="#6E1730"/>
    <circle cx="416" cy="288" r="4" fill="#6E1730"/>
  </g>
</svg>
