<svg width="1280" height="420" viewBox="0 0 1280 420" fill="none" xmlns="http://www.w3.org/2000/svg">
  <defs>
    <linearGradient id="bg" x1="0" y1="0" x2="1280" y2="420" gradientUnits="userSpaceOnUse">
      <stop stop-color="#FFF5D9"/>
      <stop offset="0.5" stop-color="#FFE8C0"/>
      <stop offset="1" stop-color="#FFEFCB"/>
    </linearGradient>
    <linearGradient id="lane" x1="0" y1="0" x2="1280" y2="0" gradientUnits="userSpaceOnUse">
      <stop stop-color="#D7DFEF"/>
      <stop offset="1" stop-color="#BBC8E2"/>
    </linearGradient>
    <linearGradient id="cup" x1="0" y1="0" x2="1" y2="1">
      <stop stop-color="#FFD56A"/>
      <stop offset="1" stop-color="#E79A1E"/>
    </linearGradient>
  </defs>

  <rect width="1280" height="420" rx="40" fill="url(#bg)"/>

  <g opacity="0.55">
    <rect x="40" y="80" width="1200" height="38" rx="19" fill="url(#lane)"/>
    <rect x="40" y="150" width="1200" height="38" rx="19" fill="url(#lane)"/>
    <rect x="40" y="220" width="1200" height="38" rx="19" fill="url(#lane)"/>
    <rect x="40" y="290" width="1200" height="38" rx="19" fill="url(#lane)"/>
  </g>

  <g>
    <circle cx="250" cy="99" r="22" fill="#A8B7D8"/>
    <circle cx="470" cy="169" r="22" fill="#A8B7D8"/>
    <circle cx="670" cy="239" r="22" fill="#A8B7D8"/>
    <circle cx="850" cy="309" r="22" fill="#A8B7D8"/>

    <circle cx="1060" cy="99" r="30" fill="url(#cup)"/>
    <path d="M1060 82L1066 95H1080L1069 103L1074 116L1060 108L1046 116L1051 103L1040 95H1054L1060 82Z" fill="#8B4B00"/>
  </g>

  <g>
    <rect x="980" y="130" width="190" height="170" rx="24" fill="#FFFDF7"/>
    <rect x="1000" y="156" width="92" height="18" rx="9" fill="#EAB443"/>
    <rect x="1000" y="186" width="148" height="14" rx="7" fill="#C8D4EA"/>
    <rect x="1000" y="208" width="130" height="14" rx="7" fill="#D6DEEE"/>
    <rect x="1000" y="240" width="116" height="42" rx="14" fill="#7A2038"/>
  </g>

  <g opacity="0.5">
    <circle cx="112" cy="52" r="24" fill="#F3C86A"/>
    <circle cx="1220" cy="358" r="30" fill="#C9AED2"/>
  </g>
</svg>
